<svg width="156" height="52" viewBox="0 0 156 52" fill="none" xmlns="http://www.w3.org/2000/svg">
<rect x="0.5" y="0.5" width="155" height="51" rx="13.5" fill="#FCFCFC" stroke="#1877F2"/>
<rect x="26" y="14" width="24" height="24" rx="12" fill="#1877F2"/>
<path d="M42.6711 29.4688L43.2031 26H39.875V23.75C39.875 22.8008 40.3391 21.875 41.8297 21.875H43.3438V18.9219C43.3438 18.9219 41.9703 18.6875 40.6578 18.6875C37.9156 18.6875 36.125 20.3492 36.125 23.3563V26H33.0781V29.4688H36.125V37.8547C36.7367 37.9508 37.3625 38 38 38C38.6375 38 39.2633 37.9508 39.875 37.8547V29.4688H42.6711Z" fill="white"/>
<path d="M66.9413 22.48H61.3913V25.36H65.7413V26.74H61.3913V31H59.7863V21.1H66.9413V22.48ZM72.3563 26.185C72.3563 25.685 72.2163 25.3 71.9363 25.03C71.6663 24.75 71.2913 24.61 70.8113 24.61C70.3613 24.61 69.9763 24.715 69.6563 24.925C69.3363 25.135 69.1013 25.475 68.9513 25.945L67.6013 25.375C67.7913 24.765 68.1613 24.275 68.7113 23.905C69.2713 23.535 69.9913 23.35 70.8713 23.35C71.4713 23.35 72.0013 23.45 72.4613 23.65C72.9213 23.84 73.2813 24.13 73.5413 24.52C73.8113 24.91 73.9463 25.41 73.9463 26.02V29.365C73.9463 29.735 74.1313 29.92 74.5013 29.92C74.6813 29.92 74.8563 29.895 75.0263 29.845L74.9363 30.955C74.7063 31.065 74.4163 31.12 74.0663 31.12C73.7463 31.12 73.4563 31.065 73.1963 30.955C72.9463 30.835 72.7463 30.66 72.5963 30.43C72.4563 30.19 72.3863 29.895 72.3863 29.545V29.44L72.7163 29.425C72.6263 29.815 72.4413 30.14 72.1613 30.4C71.8813 30.65 71.5563 30.84 71.1863 30.97C70.8163 31.09 70.4413 31.15 70.0613 31.15C69.5913 31.15 69.1663 31.075 68.7863 30.925C68.4163 30.775 68.1213 30.55 67.9013 30.25C67.6913 29.94 67.5863 29.56 67.5863 29.11C67.5863 28.55 67.7663 28.09 68.1263 27.73C68.4963 27.37 69.0163 27.125 69.6863 26.995L72.5963 26.425L72.5813 27.55L70.4663 27.985C70.0463 28.065 69.7313 28.18 69.5213 28.33C69.3113 28.48 69.2063 28.7 69.2063 28.99C69.2063 29.27 69.3113 29.495 69.5213 29.665C69.7413 29.825 70.0313 29.905 70.3913 29.905C70.6413 29.905 70.8813 29.875 71.1113 29.815C71.3513 29.755 71.5663 29.66 71.7563 29.53C71.9463 29.39 72.0913 29.215 72.1913 29.005C72.3013 28.785 72.3563 28.525 72.3563 28.225V26.185ZM79.8238 23.35C80.4238 23.35 80.9338 23.44 81.3538 23.62C81.7838 23.79 82.1438 24.035 82.4338 24.355C82.7238 24.675 82.9438 25.04 83.0938 25.45L81.5788 26.05C81.4488 25.59 81.2388 25.24 80.9488 25C80.6688 24.75 80.2988 24.625 79.8388 24.625C79.3888 24.625 79.0038 24.73 78.6838 24.94C78.3638 25.14 78.1188 25.435 77.9488 25.825C77.7888 26.215 77.7088 26.695 77.7088 27.265C77.7088 27.825 77.7938 28.3 77.9638 28.69C78.1338 29.08 78.3788 29.375 78.6988 29.575C79.0188 29.775 79.3988 29.875 79.8388 29.875C80.1788 29.875 80.4738 29.82 80.7238 29.71C80.9738 29.59 81.1788 29.425 81.3388 29.215C81.5088 28.995 81.6238 28.73 81.6838 28.42L83.1388 28.915C82.9988 29.365 82.7788 29.76 82.4788 30.1C82.1888 30.43 81.8238 30.69 81.3838 30.88C80.9438 31.06 80.4388 31.15 79.8688 31.15C79.1288 31.15 78.4738 30.995 77.9038 30.685C77.3338 30.375 76.8888 29.93 76.5688 29.35C76.2588 28.76 76.1038 28.06 76.1038 27.25C76.1038 26.44 76.2588 25.745 76.5688 25.165C76.8888 24.575 77.3288 24.125 77.8888 23.815C78.4588 23.505 79.1038 23.35 79.8238 23.35ZM88.3292 31.15C87.5792 31.15 86.9192 30.995 86.3492 30.685C85.7792 30.375 85.3342 29.93 85.0142 29.35C84.7042 28.76 84.5492 28.06 84.5492 27.25C84.5492 26.44 84.7042 25.745 85.0142 25.165C85.3342 24.575 85.7742 24.125 86.3342 23.815C86.8942 23.505 87.5292 23.35 88.2392 23.35C88.9692 23.35 89.5892 23.5 90.0992 23.8C90.6092 24.1 90.9992 24.51 91.2692 25.03C91.5392 25.55 91.6742 26.14 91.6742 26.8C91.6742 26.98 91.6692 27.15 91.6592 27.31C91.6492 27.47 91.6342 27.61 91.6142 27.73H85.5842V26.5H90.9092L90.1142 26.74C90.1142 26.06 89.9442 25.54 89.6042 25.18C89.2642 24.81 88.7992 24.625 88.2092 24.625C87.7792 24.625 87.4042 24.725 87.0842 24.925C86.7642 25.125 86.5192 25.425 86.3492 25.825C86.1792 26.215 86.0942 26.695 86.0942 27.265C86.0942 27.825 86.1842 28.3 86.3642 28.69C86.5442 29.08 86.7992 29.375 87.1292 29.575C87.4592 29.775 87.8492 29.875 88.2992 29.875C88.7992 29.875 89.2042 29.78 89.5142 29.59C89.8242 29.4 90.0692 29.135 90.2492 28.795L91.5242 29.395C91.3442 29.755 91.0992 30.07 90.7892 30.34C90.4892 30.6 90.1292 30.8 89.7092 30.94C89.2892 31.08 88.8292 31.15 88.3292 31.15ZM97.7435 31.15C97.3035 31.15 96.8985 31.065 96.5285 30.895C96.1685 30.725 95.8635 30.49 95.6135 30.19C95.3635 29.88 95.1785 29.535 95.0585 29.155L95.2535 28.9L95.1335 31H93.7235V20.125H95.3285V25.39L95.1485 25.135C95.3385 24.615 95.6635 24.19 96.1235 23.86C96.5835 23.52 97.1385 23.35 97.7885 23.35C98.3885 23.35 98.9385 23.505 99.4385 23.815C99.9485 24.125 100.349 24.57 100.639 25.15C100.929 25.73 101.074 26.435 101.074 27.265C101.074 28.075 100.924 28.77 100.624 29.35C100.334 29.93 99.9335 30.375 99.4235 30.685C98.9235 30.995 98.3635 31.15 97.7435 31.15ZM97.3985 29.86C98.0485 29.86 98.5535 29.63 98.9135 29.17C99.2835 28.7 99.4685 28.06 99.4685 27.25C99.4685 26.44 99.2885 25.805 98.9285 25.345C98.5685 24.885 98.0635 24.655 97.4135 24.655C96.9935 24.655 96.6285 24.765 96.3185 24.985C96.0085 25.195 95.7635 25.495 95.5835 25.885C95.4135 26.275 95.3285 26.74 95.3285 27.28C95.3285 27.81 95.4135 28.27 95.5835 28.66C95.7535 29.04 95.9935 29.335 96.3035 29.545C96.6235 29.755 96.9885 29.86 97.3985 29.86ZM106.405 23.35C107.135 23.35 107.78 23.505 108.34 23.815C108.9 24.125 109.335 24.575 109.645 25.165C109.965 25.745 110.125 26.44 110.125 27.25C110.125 28.06 109.965 28.76 109.645 29.35C109.335 29.93 108.9 30.375 108.34 30.685C107.78 30.995 107.135 31.15 106.405 31.15C105.675 31.15 105.03 30.995 104.47 30.685C103.91 30.375 103.47 29.93 103.15 29.35C102.83 28.76 102.67 28.06 102.67 27.25C102.67 26.44 102.83 25.745 103.15 25.165C103.47 24.575 103.91 24.125 104.47 23.815C105.03 23.505 105.675 23.35 106.405 23.35ZM106.405 24.61C105.955 24.61 105.57 24.715 105.25 24.925C104.94 25.125 104.7 25.42 104.53 25.81C104.36 26.2 104.275 26.68 104.275 27.25C104.275 27.81 104.36 28.29 104.53 28.69C104.7 29.08 104.94 29.38 105.25 29.59C105.57 29.79 105.955 29.89 106.405 29.89C106.855 29.89 107.235 29.79 107.545 29.59C107.855 29.38 108.095 29.08 108.265 28.69C108.435 28.29 108.52 27.81 108.52 27.25C108.52 26.68 108.435 26.2 108.265 25.81C108.095 25.42 107.855 25.125 107.545 24.925C107.235 24.715 106.855 24.61 106.405 24.61ZM115.422 23.35C116.152 23.35 116.797 23.505 117.357 23.815C117.917 24.125 118.352 24.575 118.662 25.165C118.982 25.745 119.142 26.44 119.142 27.25C119.142 28.06 118.982 28.76 118.662 29.35C118.352 29.93 117.917 30.375 117.357 30.685C116.797 30.995 116.152 31.15 115.422 31.15C114.692 31.15 114.047 30.995 113.487 30.685C112.927 30.375 112.487 29.93 112.167 29.35C111.847 28.76 111.687 28.06 111.687 27.25C111.687 26.44 111.847 25.745 112.167 25.165C112.487 24.575 112.927 24.125 113.487 23.815C114.047 23.505 114.692 23.35 115.422 23.35ZM115.422 24.61C114.972 24.61 114.587 24.715 114.267 24.925C113.957 25.125 113.717 25.42 113.547 25.81C113.377 26.2 113.292 26.68 113.292 27.25C113.292 27.81 113.377 28.29 113.547 28.69C113.717 29.08 113.957 29.38 114.267 29.59C114.587 29.79 114.972 29.89 115.422 29.89C115.872 29.89 116.252 29.79 116.562 29.59C116.872 29.38 117.112 29.08 117.282 28.69C117.452 28.29 117.537 27.81 117.537 27.25C117.537 26.68 117.452 26.2 117.282 25.81C117.112 25.42 116.872 25.125 116.562 24.925C116.252 24.715 115.872 24.61 115.422 24.61ZM128.264 23.5L124.919 26.92L124.574 27.16L122.219 29.605L122.204 27.775L126.359 23.5H128.264ZM122.789 20.125V31H121.184V20.125H122.789ZM125.114 26.02L128.444 31H126.584L123.914 26.935L125.114 26.02Z" fill="#1877F2"/>
</svg>
