<svg width="156" height="52" viewBox="0 0 156 52" fill="none" xmlns="http://www.w3.org/2000/svg">
<rect x="0.5" y="0.5" width="155" height="51" rx="13.5" fill="white" stroke="url(#paint0_linear_1051_926)"/>
<g clip-path="url(#clip0_1051_926)">
<path fill-rule="evenodd" clip-rule="evenodd" d="M59.52 26.2728C59.52 25.4218 59.4436 24.6037 59.3018 23.8182H48V28.46H54.4582C54.18 29.96 53.3345 31.2309 52.0636 32.0818V35.0928H55.9418C58.2109 33.0037 59.52 29.9273 59.52 26.2728Z" fill="#4285F4"/>
<path fill-rule="evenodd" clip-rule="evenodd" d="M48 38C51.24 38 53.9564 36.9255 55.9418 35.0927L52.0636 32.0818C50.9891 32.8018 49.6145 33.2273 48 33.2273C44.8745 33.2273 42.2291 31.1164 41.2855 28.28H37.2764V31.3891C39.2509 35.3109 43.3091 38 48 38Z" fill="#34A853"/>
<path fill-rule="evenodd" clip-rule="evenodd" d="M41.2855 28.28C41.0455 27.56 40.9091 26.7909 40.9091 26C40.9091 25.2091 41.0455 24.44 41.2855 23.72V20.6109H37.2764C36.4636 22.2309 36 24.0637 36 26C36 27.9364 36.4636 29.7691 37.2764 31.3891L41.2855 28.28Z" fill="#FBBC05"/>
<path fill-rule="evenodd" clip-rule="evenodd" d="M48 18.7727C49.7618 18.7727 51.3436 19.3782 52.5873 20.5673L56.0291 17.1255C53.9509 15.1891 51.2345 14 48 14C43.3091 14 39.2509 16.6891 37.2764 20.6109L41.2855 23.72C42.2291 20.8836 44.8745 18.7727 48 18.7727Z" fill="#EA4335"/>
</g>
<path d="M73.8044 31.15C72.8744 31.15 72.0694 30.945 71.3894 30.535C70.7094 30.125 70.1794 29.545 69.7994 28.795C69.4194 28.035 69.2294 27.12 69.2294 26.05C69.2294 25 69.4244 24.095 69.8144 23.335C70.2144 22.575 70.7744 21.99 71.4944 21.58C72.2244 21.16 73.0594 20.95 73.9994 20.95C75.0294 20.95 75.8594 21.14 76.4894 21.52C77.1294 21.9 77.6394 22.49 78.0194 23.29L76.5344 23.995C76.3444 23.445 76.0294 23.035 75.5894 22.765C75.1594 22.485 74.6344 22.345 74.0144 22.345C73.3944 22.345 72.8494 22.49 72.3794 22.78C71.9194 23.07 71.5594 23.495 71.2994 24.055C71.0394 24.605 70.9094 25.27 70.9094 26.05C70.9094 26.84 71.0244 27.515 71.2544 28.075C71.4844 28.625 71.8294 29.045 72.2894 29.335C72.7594 29.625 73.3344 29.77 74.0144 29.77C74.3844 29.77 74.7294 29.725 75.0494 29.635C75.3694 29.535 75.6494 29.395 75.8894 29.215C76.1294 29.025 76.3144 28.79 76.4444 28.51C76.5844 28.22 76.6544 27.88 76.6544 27.49V27.205H73.7744V25.9H78.0794V31H76.8794L76.7894 29.005L77.0894 29.155C76.8494 29.785 76.4494 30.275 75.8894 30.625C75.3394 30.975 74.6444 31.15 73.8044 31.15Z" fill="#4285F4"/>
<path d="M83.6913 23.35C84.4213 23.35 85.0663 23.505 85.6263 23.815C86.1863 24.125 86.6213 24.575 86.9313 25.165C87.2513 25.745 87.4113 26.44 87.4113 27.25C87.4113 28.06 87.2513 28.76 86.9313 29.35C86.6213 29.93 86.1863 30.375 85.6263 30.685C85.0663 30.995 84.4213 31.15 83.6913 31.15C82.9613 31.15 82.3163 30.995 81.7563 30.685C81.1963 30.375 80.7563 29.93 80.4363 29.35C80.1163 28.76 79.9563 28.06 79.9563 27.25C79.9563 26.44 80.1163 25.745 80.4363 25.165C80.7563 24.575 81.1963 24.125 81.7563 23.815C82.3163 23.505 82.9613 23.35 83.6913 23.35ZM83.6913 24.61C83.2413 24.61 82.8563 24.715 82.5363 24.925C82.2263 25.125 81.9863 25.42 81.8163 25.81C81.6463 26.2 81.5613 26.68 81.5613 27.25C81.5613 27.81 81.6463 28.29 81.8163 28.69C81.9863 29.08 82.2263 29.38 82.5363 29.59C82.8563 29.79 83.2413 29.89 83.6913 29.89C84.1413 29.89 84.5213 29.79 84.8313 29.59C85.1413 29.38 85.3813 29.08 85.5513 28.69C85.7213 28.29 85.8063 27.81 85.8063 27.25C85.8063 26.68 85.7213 26.2 85.5513 25.81C85.3813 25.42 85.1413 25.125 84.8313 24.925C84.5213 24.715 84.1413 24.61 83.6913 24.61ZM108.123 20.125V28.9C108.123 29.27 108.188 29.525 108.318 29.665C108.448 29.805 108.663 29.875 108.963 29.875C109.143 29.875 109.293 29.865 109.413 29.845C109.543 29.815 109.703 29.765 109.893 29.695L109.713 30.895C109.543 30.975 109.348 31.035 109.128 31.075C108.908 31.125 108.688 31.15 108.468 31.15C107.798 31.15 107.303 30.98 106.983 30.64C106.673 30.29 106.518 29.755 106.518 29.035V20.125H108.123Z" fill="#34A853"/>
<path d="M92.708 23.35C93.438 23.35 94.083 23.505 94.643 23.815C95.203 24.125 95.638 24.575 95.948 25.165C96.268 25.745 96.428 26.44 96.428 27.25C96.428 28.06 96.268 28.76 95.948 29.35C95.638 29.93 95.203 30.375 94.643 30.685C94.083 30.995 93.438 31.15 92.708 31.15C91.978 31.15 91.333 30.995 90.773 30.685C90.213 30.375 89.773 29.93 89.453 29.35C89.133 28.76 88.973 28.06 88.973 27.25C88.973 26.44 89.133 25.745 89.453 25.165C89.773 24.575 90.213 24.125 90.773 23.815C91.333 23.505 91.978 23.35 92.708 23.35ZM92.708 24.61C92.258 24.61 91.873 24.715 91.553 24.925C91.243 25.125 91.003 25.42 90.833 25.81C90.663 26.2 90.578 26.68 90.578 27.25C90.578 27.81 90.663 28.29 90.833 28.69C91.003 29.08 91.243 29.38 91.553 29.59C91.873 29.79 92.258 29.89 92.708 29.89C93.158 29.89 93.538 29.79 93.848 29.59C94.158 29.38 94.398 29.08 94.568 28.69C94.738 28.29 94.823 27.81 94.823 27.25C94.823 26.68 94.738 26.2 94.568 25.81C94.398 25.42 94.158 25.125 93.848 24.925C93.538 24.715 93.158 24.61 92.708 24.61ZM114.559 31.15C113.809 31.15 113.149 30.995 112.579 30.685C112.009 30.375 111.564 29.93 111.244 29.35C110.934 28.76 110.779 28.06 110.779 27.25C110.779 26.44 110.934 25.745 111.244 25.165C111.564 24.575 112.004 24.125 112.564 23.815C113.124 23.505 113.759 23.35 114.469 23.35C115.199 23.35 115.819 23.5 116.329 23.8C116.839 24.1 117.229 24.51 117.499 25.03C117.769 25.55 117.904 26.14 117.904 26.8C117.904 26.98 117.899 27.15 117.889 27.31C117.879 27.47 117.864 27.61 117.844 27.73H111.814V26.5H117.139L116.344 26.74C116.344 26.06 116.174 25.54 115.834 25.18C115.494 24.81 115.029 24.625 114.439 24.625C114.009 24.625 113.634 24.725 113.314 24.925C112.994 25.125 112.749 25.425 112.579 25.825C112.409 26.215 112.324 26.695 112.324 27.265C112.324 27.825 112.414 28.3 112.594 28.69C112.774 29.08 113.029 29.375 113.359 29.575C113.689 29.775 114.079 29.875 114.529 29.875C115.029 29.875 115.434 29.78 115.744 29.59C116.054 29.4 116.299 29.135 116.479 28.795L117.754 29.395C117.574 29.755 117.329 30.07 117.019 30.34C116.719 30.6 116.359 30.8 115.939 30.94C115.519 31.08 115.059 31.15 114.559 31.15Z" fill="#FBBC05"/>
<path d="M105.04 21.925L105.295 23.185C105.265 23.185 105.235 23.185 105.205 23.185C105.175 23.175 105.145 23.17 105.115 23.17C104.635 23.17 104.27 23.275 104.02 23.485C103.77 23.685 103.645 23.98 103.645 24.37L102.865 24.01C102.865 23.61 102.95 23.255 103.12 22.945C103.29 22.625 103.53 22.375 103.84 22.195C104.16 22.015 104.52 21.925 104.92 21.925C104.94 21.925 104.96 21.925 104.98 21.925C105 21.925 105.02 21.925 105.04 21.925ZM102.67 29.83C103.43 29.83 104.02 30 104.44 30.34C104.86 30.67 105.07 31.13 105.07 31.72C105.07 32.24 104.905 32.685 104.575 33.055C104.245 33.435 103.795 33.725 103.225 33.925C102.665 34.125 102.02 34.225 101.29 34.225C100.06 34.225 99.1503 34.035 98.5603 33.655C97.9703 33.275 97.6753 32.8 97.6753 32.23C97.6753 31.83 97.8153 31.48 98.0953 31.18C98.3853 30.88 98.8703 30.71 99.5503 30.67L99.4603 30.91C99.0403 30.82 98.7003 30.66 98.4403 30.43C98.1903 30.19 98.0653 29.855 98.0653 29.425C98.0653 28.995 98.2303 28.63 98.5603 28.33C98.8903 28.03 99.3553 27.855 99.9553 27.805L100.795 28.21H100.615C100.155 28.25 99.8303 28.355 99.6403 28.525C99.4503 28.695 99.3553 28.885 99.3553 29.095C99.3553 29.345 99.4453 29.53 99.6253 29.65C99.8153 29.77 100.08 29.83 100.42 29.83H102.67ZM101.29 33.025C101.84 33.025 102.29 32.97 102.64 32.86C103 32.76 103.265 32.625 103.435 32.455C103.615 32.295 103.705 32.115 103.705 31.915C103.705 31.685 103.61 31.5 103.42 31.36C103.24 31.22 102.91 31.15 102.43 31.15H100.015C99.7353 31.15 99.5003 31.22 99.3103 31.36C99.1203 31.51 99.0253 31.71 99.0253 31.96C99.0253 32.29 99.2253 32.55 99.6253 32.74C100.025 32.93 100.58 33.025 101.29 33.025ZM101.23 23.35C101.89 23.35 102.46 23.455 102.94 23.665C103.43 23.875 103.805 24.17 104.065 24.55C104.335 24.93 104.47 25.375 104.47 25.885C104.47 26.395 104.335 26.84 104.065 27.22C103.805 27.6 103.43 27.895 102.94 28.105C102.46 28.315 101.89 28.42 101.23 28.42C100.19 28.42 99.3903 28.19 98.8303 27.73C98.2803 27.26 98.0053 26.645 98.0053 25.885C98.0053 25.375 98.1403 24.93 98.4103 24.55C98.6803 24.17 99.0553 23.875 99.5353 23.665C100.025 23.455 100.59 23.35 101.23 23.35ZM101.23 24.475C100.77 24.475 100.385 24.605 100.075 24.865C99.7753 25.115 99.6253 25.455 99.6253 25.885C99.6253 26.315 99.7753 26.66 100.075 26.92C100.385 27.18 100.77 27.31 101.23 27.31C101.7 27.31 102.085 27.18 102.385 26.92C102.695 26.66 102.85 26.315 102.85 25.885C102.85 25.455 102.695 25.115 102.385 24.865C102.085 24.605 101.7 24.475 101.23 24.475Z" fill="#EA4335"/>
<defs>
<linearGradient id="paint0_linear_1051_926" x1="160" y1="20" x2="-6.43567e-07" y2="21" gradientUnits="userSpaceOnUse">
<stop stop-color="#EA4335"/>
<stop offset="0.357292" stop-color="#FBBC05"/>
<stop offset="0.695833" stop-color="#34A853"/>
<stop offset="1" stop-color="#4285F4"/>
</linearGradient>
<clipPath id="clip0_1051_926">
<rect width="24" height="24" fill="white" transform="translate(36 14)"/>
</clipPath>
</defs>
</svg>
