<svg width="222" height="204" viewBox="0 0 222 204" fill="none" xmlns="http://www.w3.org/2000/svg">
<path d="M17.6186 144.23V166.679H14.8976V144.23H17.6186ZM2.72102 144.23V166.679H0V144.23H2.72102ZM16.1561 154.026V156.577H1.42854V154.026H16.1561Z" fill="#101928"/>
<path d="M34.2854 155.693C34.2854 154.423 33.9453 153.448 33.265 152.768C32.5848 152.065 31.6211 151.713 30.3739 151.713C29.1948 151.713 28.1971 151.974 27.3808 152.495C26.5645 152.994 25.9636 153.811 25.5781 154.944L23.3673 153.584C23.8208 152.314 24.6598 151.294 25.8842 150.523C27.1087 149.729 28.6279 149.332 30.442 149.332C31.6664 149.332 32.7775 149.548 33.7752 149.978C34.7729 150.387 35.5552 151.022 36.1221 151.883C36.7116 152.722 37.0064 153.811 37.0064 155.148V163.38C37.0064 164.196 37.4372 164.604 38.2989 164.604C38.7297 164.604 39.1492 164.547 39.5574 164.434L39.4213 166.577C38.9678 166.803 38.3783 166.917 37.6527 166.917C36.9951 166.917 36.4055 166.792 35.884 166.543C35.3625 166.293 34.9543 165.919 34.6595 165.42C34.3648 164.899 34.2174 164.253 34.2174 163.482V163.141L34.8976 163.243C34.6255 164.128 34.1607 164.853 33.5031 165.42C32.8455 165.964 32.1086 166.373 31.2923 166.645C30.476 166.894 29.671 167.019 28.8774 167.019C27.8797 167.019 26.95 166.849 26.0883 166.509C25.2267 166.169 24.5351 165.658 24.0135 164.978C23.5147 164.275 23.2653 163.414 23.2653 162.393C23.2653 161.123 23.6848 160.08 24.5237 159.264C25.3854 158.425 26.5758 157.858 28.0951 157.563L34.8296 156.237V158.482L29.3535 159.604C28.2425 159.831 27.4148 160.148 26.8706 160.556C26.3264 160.965 26.0543 161.531 26.0543 162.257C26.0543 162.96 26.3264 163.538 26.8706 163.992C27.4375 164.423 28.2311 164.638 29.2515 164.638C29.9091 164.638 30.5327 164.559 31.1222 164.4C31.7344 164.218 32.2786 163.958 32.7548 163.618C33.231 163.255 33.6051 162.813 33.8772 162.291C34.1493 161.747 34.2854 161.112 34.2854 160.386V155.693Z" fill="#101928"/>
<path d="M45.0643 146.407C44.452 146.407 43.9532 146.226 43.5677 145.863C43.2049 145.477 43.0235 144.979 43.0235 144.366C43.0235 143.754 43.2049 143.267 43.5677 142.904C43.9532 142.518 44.452 142.326 45.0643 142.326C45.6765 142.326 46.164 142.518 46.5268 142.904C46.9123 143.267 47.105 143.754 47.105 144.366C47.105 144.979 46.9123 145.477 46.5268 145.863C46.164 146.226 45.6765 146.407 45.0643 146.407ZM46.4248 149.672V166.679H43.7037V149.672H46.4248Z" fill="#101928"/>
<path d="M52.8234 166.679V149.672H55.0342L55.4084 152.461C55.8846 151.418 56.5762 150.636 57.4832 150.115C58.4129 149.593 59.5353 149.332 60.8504 149.332C61.1452 149.332 61.4627 149.355 61.8028 149.4C62.1656 149.446 62.4717 149.536 62.7211 149.672L62.245 152.155C61.9955 152.065 61.7234 151.997 61.4286 151.951C61.1339 151.906 60.7144 151.883 60.1702 151.883C59.4672 151.883 58.753 152.087 58.0274 152.495C57.3244 152.904 56.7349 153.527 56.2587 154.366C55.7825 155.182 55.5444 156.225 55.5444 157.495V166.679H52.8234Z" fill="#101928"/>
<path d="M83.2848 167.019C81.7882 167.019 80.5071 166.758 79.4413 166.237C78.3756 165.715 77.5593 165.001 76.9924 164.094C76.4255 163.187 76.1421 162.144 76.1421 160.965C76.1421 160.239 76.2328 159.559 76.4142 158.924C76.6183 158.266 76.9357 157.643 77.3665 157.053C77.7974 156.464 78.3756 155.908 79.1012 155.387C79.8495 154.865 80.7678 154.377 81.8562 153.924L83.2848 153.21C84.1464 152.734 84.8607 152.291 85.4276 151.883C85.9945 151.452 86.4139 150.988 86.6861 150.489C86.9808 149.99 87.1282 149.4 87.1282 148.72C87.1282 147.926 86.8788 147.314 86.3799 146.883C85.9038 146.43 85.2462 146.203 84.4072 146.203C83.4322 146.203 82.7066 146.475 82.2304 147.019C81.7769 147.541 81.5501 148.153 81.5501 148.856C81.5501 149.287 81.6068 149.706 81.7202 150.115C81.8336 150.5 82.0716 150.988 82.4344 151.577C82.8199 152.167 83.3868 152.949 84.1351 153.924C84.8834 154.899 85.8924 156.18 87.1622 157.767C88.4547 159.355 89.5204 160.636 90.3594 161.611C91.1984 162.563 91.9127 163.289 92.5022 163.788C93.0918 164.264 93.636 164.581 94.1348 164.74C94.6564 164.899 95.2233 164.978 95.8355 164.978L95.1552 167.019C94.4976 167.019 93.8741 166.94 93.2845 166.781C92.7176 166.622 92.0827 166.282 91.3798 165.76C90.6996 165.239 89.8719 164.457 88.8969 163.414C87.9445 162.37 86.7541 160.976 85.3255 159.23C84.1011 157.711 83.0807 156.43 82.2644 155.387C81.4481 154.343 80.8018 153.459 80.3257 152.734C79.8495 152.008 79.5094 151.35 79.3053 150.761C79.1012 150.149 78.9992 149.525 78.9992 148.89C78.9992 148.074 79.1919 147.28 79.5774 146.509C79.9855 145.738 80.5978 145.115 81.4141 144.638C82.2304 144.14 83.2848 143.89 84.5773 143.89C85.5523 143.89 86.4026 144.072 87.1282 144.434C87.8538 144.797 88.4207 145.319 88.8288 145.999C89.2597 146.679 89.4751 147.484 89.4751 148.414C89.4751 149.208 89.339 149.967 89.0669 150.693C88.8175 151.396 88.33 152.099 87.6044 152.802C86.9015 153.482 85.8471 154.196 84.4412 154.944L83.2848 155.387C82.1057 155.931 81.1873 156.464 80.5297 156.985C79.8722 157.484 79.4073 158.028 79.1352 158.618C78.8631 159.207 78.7271 159.91 78.7271 160.727C78.7271 161.565 78.9425 162.291 79.3733 162.903C79.8041 163.516 80.3823 163.992 81.1079 164.332C81.8336 164.649 82.6499 164.808 83.5569 164.808C84.804 164.808 85.8584 164.581 86.7201 164.128C87.5817 163.674 88.3754 163.028 89.101 162.189L89.5431 161.781C90.1327 160.851 90.5862 159.797 90.9036 158.618C91.2438 157.439 91.3571 156.123 91.2438 154.672L93.5566 154.876C93.6473 156.328 93.4886 157.756 93.0805 159.162C92.695 160.568 92.0714 161.838 91.2097 162.971L90.6996 163.686C89.8379 164.706 88.7948 165.522 87.5704 166.135C86.3459 166.724 84.9174 167.019 83.2848 167.019Z" fill="#101928"/>
<path d="M111.137 166.679V144.23H119.13C121.783 144.23 123.721 144.786 124.946 145.897C126.17 147.008 126.783 148.516 126.783 150.421C126.783 151.554 126.454 152.586 125.796 153.516C125.139 154.423 124.209 155.001 123.007 155.25V155.284C124.345 155.534 125.399 156.146 126.17 157.121C126.964 158.074 127.361 159.162 127.361 160.386C127.361 162.291 126.647 163.822 125.218 164.978C123.789 166.112 121.749 166.679 119.096 166.679H111.137ZM113.858 164.128H119.742C121.352 164.128 122.542 163.799 123.313 163.141C124.107 162.484 124.504 161.565 124.504 160.386C124.504 159.185 124.107 158.266 123.313 157.631C122.542 156.974 121.352 156.645 119.742 156.645H113.858V164.128ZM113.858 154.094H119.164C122.338 154.094 123.926 152.87 123.926 150.421C123.926 147.994 122.338 146.781 119.164 146.781H113.858V154.094Z" fill="#101928"/>
<path d="M140.041 167.019C138.432 167.019 136.992 166.667 135.722 165.964C134.475 165.262 133.5 164.253 132.797 162.937C132.094 161.6 131.742 160.012 131.742 158.176C131.742 156.339 132.094 154.763 132.797 153.448C133.5 152.11 134.463 151.09 135.688 150.387C136.912 149.684 138.307 149.332 139.871 149.332C141.459 149.332 142.808 149.672 143.919 150.353C145.053 151.033 145.914 151.963 146.504 153.142C147.093 154.298 147.388 155.602 147.388 157.053C147.388 157.439 147.377 157.79 147.354 158.108C147.332 158.425 147.298 158.708 147.252 158.958H133.511V156.543H146.062L144.667 156.815C144.667 155.182 144.214 153.924 143.307 153.04C142.422 152.155 141.255 151.713 139.803 151.713C138.692 151.713 137.729 151.974 136.912 152.495C136.119 152.994 135.495 153.731 135.042 154.706C134.611 155.659 134.395 156.815 134.395 158.176C134.395 159.513 134.622 160.67 135.076 161.645C135.529 162.62 136.164 163.368 136.98 163.89C137.819 164.389 138.817 164.638 139.973 164.638C141.221 164.638 142.23 164.4 143.001 163.924C143.794 163.448 144.429 162.801 144.905 161.985L147.048 163.243C146.617 164.014 146.062 164.683 145.381 165.25C144.724 165.817 143.942 166.259 143.035 166.577C142.15 166.871 141.153 167.019 140.041 167.019Z" fill="#101928"/>
<path d="M162.58 155.693C162.58 154.423 162.24 153.448 161.56 152.768C160.879 152.065 159.916 151.713 158.668 151.713C157.489 151.713 156.492 151.974 155.675 152.495C154.859 152.994 154.258 153.811 153.873 154.944L151.662 153.584C152.115 152.314 152.954 151.294 154.179 150.523C155.403 149.729 156.923 149.332 158.737 149.332C159.961 149.332 161.072 149.548 162.07 149.978C163.067 150.387 163.85 151.022 164.417 151.883C165.006 152.722 165.301 153.811 165.301 155.148V163.38C165.301 164.196 165.732 164.604 166.593 164.604C167.024 164.604 167.444 164.547 167.852 164.434L167.716 166.577C167.262 166.803 166.673 166.917 165.947 166.917C165.29 166.917 164.7 166.792 164.179 166.543C163.657 166.293 163.249 165.919 162.954 165.42C162.659 164.899 162.512 164.253 162.512 163.482V163.141L163.192 163.243C162.92 164.128 162.455 164.853 161.798 165.42C161.14 165.964 160.403 166.373 159.587 166.645C158.771 166.894 157.966 167.019 157.172 167.019C156.174 167.019 155.245 166.849 154.383 166.509C153.521 166.169 152.83 165.658 152.308 164.978C151.809 164.275 151.56 163.414 151.56 162.393C151.56 161.123 151.979 160.08 152.818 159.264C153.68 158.425 154.87 157.858 156.39 157.563L163.124 156.237V158.482L157.648 159.604C156.537 159.831 155.709 160.148 155.165 160.556C154.621 160.965 154.349 161.531 154.349 162.257C154.349 162.96 154.621 163.538 155.165 163.992C155.732 164.423 156.526 164.638 157.546 164.638C158.204 164.638 158.827 164.559 159.417 164.4C160.029 164.218 160.573 163.958 161.049 163.618C161.526 163.255 161.9 162.813 162.172 162.291C162.444 161.747 162.58 161.112 162.58 160.386V155.693Z" fill="#101928"/>
<path d="M178.155 167.019C177.066 167.019 176.034 166.815 175.059 166.407C174.107 165.998 173.325 165.341 172.713 164.434C172.123 163.504 171.828 162.302 171.828 160.829V149.672H174.549V160.114C174.549 161.838 174.923 163.028 175.672 163.686C176.42 164.321 177.474 164.638 178.835 164.638C179.47 164.638 180.093 164.536 180.706 164.332C181.318 164.105 181.862 163.765 182.338 163.311C182.837 162.835 183.223 162.234 183.495 161.509C183.789 160.783 183.937 159.922 183.937 158.924V149.672H186.658V166.679H184.277L184.107 164.094C183.517 165.114 182.712 165.862 181.692 166.339C180.694 166.792 179.515 167.019 178.155 167.019Z" fill="#101928"/>
<path d="M197.089 144.843V161.985C197.089 162.824 197.327 163.448 197.803 163.856C198.28 164.264 198.892 164.468 199.64 164.468C200.298 164.468 200.865 164.355 201.341 164.128C201.817 163.901 202.248 163.595 202.633 163.209L203.586 165.488C203.064 165.964 202.44 166.339 201.715 166.611C201.012 166.883 200.196 167.019 199.266 167.019C198.404 167.019 197.599 166.871 196.851 166.577C196.103 166.259 195.502 165.772 195.048 165.114C194.617 164.434 194.391 163.55 194.368 162.461V145.591L197.089 144.843ZM203.279 149.672V152.019H190.967V149.672H203.279Z" fill="#101928"/>
<path d="M221.389 149.672L213.396 169.536C212.966 170.647 212.489 171.52 211.968 172.155C211.469 172.812 210.902 173.277 210.267 173.549C209.655 173.844 208.941 173.991 208.124 173.991C207.353 173.991 206.639 173.878 205.982 173.651C205.347 173.447 204.78 173.164 204.281 172.801L205.029 170.42C205.483 170.828 205.959 171.123 206.458 171.304C206.979 171.509 207.489 171.611 207.988 171.611C208.578 171.611 209.133 171.429 209.655 171.066C210.176 170.704 210.653 169.967 211.083 168.856L211.968 166.645L210.267 162.597L204.859 149.672H207.954L212.206 160.761L213.26 163.788L214.485 160.42L218.464 149.672H221.389Z" fill="#101928"/>
<path d="M46.3749 189.498V198.567C46.3749 200.342 45.8915 201.691 44.9247 202.615C43.9723 203.538 42.6231 204 40.8772 204C39.1312 204 37.7748 203.538 36.808 202.615C35.8412 201.691 35.3578 200.342 35.3578 198.567V189.498H36.44V198.351C36.44 199.88 36.8152 201.042 37.5656 201.836C38.3303 202.615 39.4342 203.004 40.8772 203.004C42.3201 203.004 43.4168 202.615 44.1671 201.836C44.9175 201.042 45.2926 199.88 45.2926 198.351V189.498H46.3749Z" fill="#212121"/>
<path d="M61.5157 189.498V203.784H60.1737L52.5982 192.572L51.5376 190.732H51.5159L51.5809 192.464V203.784H50.5419V189.498H51.9055L59.4595 200.688L60.5417 202.55L60.4984 200.818V189.498H61.5157Z" fill="#212121"/>
<path d="M67.0966 189.498V203.784H66.0144V189.498H67.0966Z" fill="#212121"/>
<path d="M76.01 189.282C77.3231 189.282 78.427 189.542 79.3217 190.061C80.2307 190.58 80.9233 191.374 81.3995 192.442L80.4905 193.134C80.072 192.124 79.4804 191.396 78.7156 190.948C77.9653 190.501 77.0346 190.277 75.9235 190.277C75.0721 190.277 74.3506 190.414 73.759 190.689C73.1674 190.948 72.7129 191.302 72.3954 191.749C72.0924 192.182 71.9409 192.673 71.9409 193.221C71.9409 193.885 72.1573 194.433 72.5902 194.866C73.0231 195.299 73.8167 195.645 74.9711 195.905L77.7849 196.511C79.1846 196.814 80.1658 197.254 80.7285 197.831C81.3057 198.394 81.5943 199.123 81.5943 200.017C81.5943 200.797 81.3635 201.489 80.9017 202.095C80.4544 202.701 79.8339 203.17 79.0403 203.502C78.2466 203.834 77.3159 204 76.2481 204C75.2236 204 74.3074 203.863 73.4993 203.589C72.7057 203.3 72.0347 202.903 71.4863 202.398C70.938 201.879 70.534 201.258 70.2743 200.537L71.2266 199.801C71.4286 200.479 71.7605 201.064 72.2223 201.554C72.6984 202.03 73.2828 202.391 73.9755 202.636C74.6681 202.882 75.4401 203.004 76.2914 203.004C77.0995 203.004 77.821 202.896 78.4559 202.68C79.0908 202.449 79.5814 202.117 79.9277 201.684C80.2884 201.251 80.4688 200.717 80.4688 200.082C80.4688 199.476 80.2524 198.964 79.8195 198.546C79.401 198.127 78.6507 197.81 77.5685 197.593L74.6248 196.944C73.7157 196.742 72.9798 196.475 72.4171 196.143C71.8543 195.811 71.4431 195.414 71.1833 194.953C70.938 194.476 70.8154 193.943 70.8154 193.351C70.8154 192.615 71.0246 191.944 71.4431 191.338C71.8615 190.718 72.4604 190.22 73.2396 189.845C74.0188 189.469 74.9423 189.282 76.01 189.282Z" fill="#212121"/>
<path d="M84.9956 203.784V189.498H94.7572V190.494H86.0778V196.013H92.9391V197.03H86.0778V202.788H95.1035V203.784H84.9956Z" fill="#212121"/>
<path d="M107.707 203.784H106.452L102.101 197.355L97.6858 203.784H96.4088L101.517 196.446L96.8417 189.498H98.1404L102.188 195.537L106.3 189.498H107.534L102.772 196.424L107.707 203.784Z" fill="#212121"/>
<path d="M121.497 189.282C122.81 189.282 123.914 189.542 124.809 190.061C125.718 190.58 126.411 191.374 126.887 192.442L125.978 193.134C125.559 192.124 124.968 191.396 124.203 190.948C123.452 190.501 122.522 190.277 121.411 190.277C120.559 190.277 119.838 190.414 119.246 190.689C118.655 190.948 118.2 191.302 117.883 191.749C117.58 192.182 117.428 192.673 117.428 193.221C117.428 193.885 117.645 194.433 118.077 194.866C118.51 195.299 119.304 195.645 120.458 195.905L123.272 196.511C124.672 196.814 125.653 197.254 126.216 197.831C126.793 198.394 127.082 199.123 127.082 200.017C127.082 200.797 126.851 201.489 126.389 202.095C125.942 202.701 125.321 203.17 124.528 203.502C123.734 203.834 122.803 204 121.735 204C120.711 204 119.795 203.863 118.987 203.589C118.193 203.3 117.522 202.903 116.974 202.398C116.425 201.879 116.021 201.258 115.761 200.537L116.714 199.801C116.916 200.479 117.248 201.064 117.71 201.554C118.186 202.03 118.77 202.391 119.463 202.636C120.155 202.882 120.927 203.004 121.779 203.004C122.587 203.004 123.308 202.896 123.943 202.68C124.578 202.449 125.069 202.117 125.415 201.684C125.776 201.251 125.956 200.717 125.956 200.082C125.956 199.476 125.74 198.964 125.307 198.546C124.888 198.127 124.138 197.81 123.056 197.593L120.112 196.944C119.203 196.742 118.467 196.475 117.904 196.143C117.342 195.811 116.93 195.414 116.671 194.953C116.425 194.476 116.303 193.943 116.303 193.351C116.303 192.615 116.512 191.944 116.93 191.338C117.349 190.718 117.948 190.22 118.727 189.845C119.506 189.469 120.429 189.282 121.497 189.282Z" fill="#212121"/>
<path d="M141.243 203.784H140.095L138.299 199.303H131.481L129.684 203.784H128.537L134.251 189.498H135.529L141.243 203.784ZM131.871 198.308H137.909L134.879 190.559L131.871 198.308Z" fill="#212121"/>
<path d="M144.987 202.788H153.558V203.784H143.905V189.498H144.987V202.788Z" fill="#212121"/>
<path d="M161.096 189.282C162.452 189.282 163.621 189.585 164.602 190.191C165.583 190.782 166.341 191.627 166.875 192.723C167.409 193.82 167.675 195.126 167.675 196.641C167.675 198.156 167.409 199.462 166.875 200.559C166.341 201.655 165.583 202.507 164.602 203.113C163.621 203.704 162.452 204 161.096 204C159.754 204 158.585 203.704 157.589 203.113C156.608 202.507 155.85 201.655 155.316 200.559C154.783 199.462 154.516 198.156 154.516 196.641C154.516 195.126 154.783 193.82 155.316 192.723C155.85 191.627 156.608 190.782 157.589 190.191C158.585 189.585 159.754 189.282 161.096 189.282ZM161.096 190.277C159.984 190.277 159.018 190.537 158.195 191.057C157.387 191.562 156.759 192.29 156.312 193.243C155.865 194.195 155.641 195.328 155.641 196.641C155.641 197.954 155.865 199.087 156.312 200.039C156.759 200.991 157.387 201.727 158.195 202.247C159.018 202.752 159.984 203.004 161.096 203.004C162.221 203.004 163.188 202.752 163.996 202.247C164.804 201.727 165.432 200.991 165.879 200.039C166.326 199.087 166.55 197.954 166.55 196.641C166.55 195.328 166.326 194.195 165.879 193.243C165.432 192.29 164.804 191.562 163.996 191.057C163.188 190.537 162.221 190.277 161.096 190.277Z" fill="#212121"/>
<path d="M182.251 189.498V203.784H180.909L173.334 192.572L172.273 190.732H172.252L172.317 192.464V203.784H171.278V189.498H172.641L180.195 200.688L181.277 202.55L181.234 200.818V189.498H182.251Z" fill="#212121"/>
<path d="M214.318 200.692H189.581C188.727 200.692 188.035 201.384 188.035 202.238C188.035 203.091 188.727 203.784 189.581 203.784H214.318C215.171 203.784 215.864 203.091 215.864 202.238C215.864 201.384 215.171 200.692 214.318 200.692Z" fill="#1A1B1C"/>
<path d="M28.7934 200.692H4.05679C3.20294 200.692 2.51076 201.384 2.51076 202.238C2.51076 203.091 3.20294 203.784 4.0568 203.784H28.7934C29.6472 203.784 30.3394 203.091 30.3394 202.238C30.3394 201.384 29.6472 200.692 28.7934 200.692Z" fill="#1A1B1C"/>
<g clip-path="url(#clip0_1051_1101)">
<path d="M81.4763 9.22335C78.2238 12.3659 77.5481 17.881 80.1407 22.7991C81.0281 24.6163 82.3551 26.1832 84.0015 27.3575C85.6478 28.5319 87.5613 29.2766 89.5684 29.5241C91.4982 29.7115 93.3518 30.3733 94.9638 31.4508C96.5758 32.5282 97.8963 33.9877 98.8074 35.6992C99.4839 36.9188 100.098 38.1722 100.646 39.4546C102.076 43.6027 104.354 49.2907 107.025 55.6229C102.013 70.0629 92.051 99.2571 91.3125 104.851C91.3125 104.851 90.5583 108.355 92.5852 107.679C92.5852 107.679 102.767 86.137 111.55 66.1347C120.318 86.137 130.516 107.679 130.516 107.679C132.527 108.355 131.788 104.851 131.788 104.851C131.05 99.2571 121.088 70.0629 116.076 55.6229C118.747 49.3379 121.025 43.6027 122.455 39.4546C122.993 38.1704 123.602 36.9168 124.278 35.6992C125.189 33.9877 126.509 32.5282 128.121 31.4508C129.733 30.3733 131.587 29.7115 133.517 29.5241C135.524 29.2766 137.437 28.5319 139.084 27.3575C140.73 26.1832 142.057 24.6163 142.944 22.7991C145.961 17.0954 144.516 10.4489 139.802 7.95062C135.088 5.4523 128.803 8.06061 125.786 13.7643C124.409 16.3026 123.917 19.2272 124.388 22.0763C125.008 25.148 124.447 28.3408 122.816 31.0169C119.674 35.9035 115.054 42.8328 111.582 46.1482C108.109 42.8328 103.443 35.9035 100.332 31.0169C98.7008 28.3408 98.1396 25.148 98.7603 22.0763C99.232 19.2255 98.7341 16.2988 97.3461 13.7643C94.5336 8.40629 88.8299 5.78227 84.226 7.47924C82.6548 5.27946 80.455 1.85409 80.2979 0.204262C80.3249 0.133419 80.3228 0.0547165 80.2918 -0.014531C80.2609 -0.0837784 80.2037 -0.137899 80.1329 -0.164986C80.062 -0.192073 79.9833 -0.189908 79.9141 -0.158968C79.8448 -0.128028 79.7907 -0.0708462 79.7636 -2.66731e-06L76.6211 1.88552C76.5787 1.91052 76.5436 1.94614 76.5193 1.98885C76.4949 2.03156 76.4821 2.07989 76.4821 2.12907C76.4821 2.17825 76.4949 2.22658 76.5193 2.26929C76.5436 2.312 76.5787 2.34761 76.6211 2.37261C78.0667 3.31538 80.1879 6.85073 81.4763 9.22335ZM128.347 15.0999C130.437 11.0932 134.852 9.27049 138.168 10.9989C141.483 12.7273 142.489 17.4411 140.352 21.4478C138.215 25.4546 133.831 27.2772 130.5 25.5331C127.169 23.789 126.21 19.1066 128.347 15.0999ZM111.676 51.2391C112.366 51.2391 113.04 51.4437 113.614 51.827C114.188 52.2103 114.635 52.755 114.899 53.3924C115.163 54.0298 115.232 54.7312 115.097 55.4078C114.963 56.0845 114.63 56.706 114.143 57.1939C113.655 57.6817 113.033 58.0139 112.357 58.1485C111.68 58.2831 110.979 58.214 110.341 57.95C109.704 57.686 109.159 57.2389 108.776 56.6653C108.392 56.0916 108.188 55.4172 108.188 54.7273C108.188 53.8063 108.554 52.9231 109.205 52.2719C109.856 51.6207 110.739 51.2548 111.66 51.2548L111.676 51.2391ZM84.8703 10.9989C88.1856 9.23906 92.6009 10.9989 94.7064 15.0685C96.8119 19.1381 95.8534 23.7419 92.5223 25.5017C89.1912 27.2615 84.8074 25.4231 82.6862 21.4164C80.565 17.4097 81.5392 12.7744 84.8703 10.9989Z" fill="#101928"/>
<path d="M138.042 46.6353L140.21 50.5006L141.53 46.2582L145.898 45.394L142.269 42.8171L142.787 38.4175L139.22 41.073L135.182 39.2032L136.612 43.4142L133.595 46.6824L138.042 46.6353Z" fill="#101928"/>
<path d="M165.728 74.9653L162.255 77.1493L166.231 78.1706L167.252 82.1617L169.452 78.6892L173.553 78.9563L170.929 75.7823L172.453 71.9641L168.635 73.4883L165.461 70.8642L165.728 74.9653Z" fill="#101928"/>
<path d="M154.446 59.9439L156.332 66.4647L159.788 60.6196L166.576 60.8553L162.082 55.7486L164.392 49.3693L158.154 52.0719L152.796 47.8923L153.456 54.6645L147.815 58.4669L154.446 59.9439Z" fill="#101928"/>
<path d="M158.421 112.393L157.102 108.15L154.933 112.016L150.486 111.969L153.503 115.221L152.073 119.432L156.112 117.578L159.678 120.234L159.144 115.818L162.774 113.257L158.421 112.393Z" fill="#101928"/>
<path d="M178.565 94.2604L171.761 94.4961L168.32 88.6353L166.435 95.1718L159.804 96.6488L165.429 100.451L164.785 107.208L170.143 103.028L176.381 105.746L174.055 99.3514L178.565 94.2604Z" fill="#101928"/>
<path d="M82.0891 46.2582L83.409 50.5006L85.593 46.6353L90.024 46.6824L87.0229 43.4142L88.437 39.2032L84.4146 41.073L80.8478 38.4175L81.3663 42.8171L77.7367 45.394L82.0891 46.2582Z" fill="#101928"/>
<path d="M54.1833 78.6892L56.3831 82.1617L57.3887 78.1706L61.3797 77.1493L57.8915 74.9653L58.1586 70.8642L55.0003 73.4883L51.1822 71.9641L52.7063 75.7823L50.0823 78.9563L54.1833 78.6892Z" fill="#101928"/>
<path d="M63.8466 60.6196L67.2877 66.4647L69.1732 59.9439L75.804 58.4669L70.1788 54.6645L70.823 47.8923L65.465 52.0719L59.2428 49.3693L61.5525 55.7486L57.0587 60.8553L63.8466 60.6196Z" fill="#101928"/>
<path d="M68.7018 112.016L66.5335 108.15L65.2136 112.393L60.8455 113.257L64.4751 115.818L63.9566 120.234L67.5234 117.578L71.5615 119.432L70.1317 115.221L73.1485 111.969L68.7018 112.016Z" fill="#101928"/>
<path d="M63.8309 96.6488L57.2001 95.1718L55.3146 88.6353L51.8578 94.4961L45.0699 94.2604L49.5795 99.3514L47.254 105.746L53.492 103.028L58.85 107.208L58.2058 100.451L63.8309 96.6488Z" fill="#101928"/>
</g>
<defs>
<clipPath id="clip0_1051_1101">
<rect width="133.495" height="142.326" fill="white" transform="translate(45.0699)"/>
</clipPath>
</defs>
</svg>
