<svg width="221" height="42" viewBox="0 0 221 42" fill="none" xmlns="http://www.w3.org/2000/svg">
<rect x="0.5" width="220" height="42" rx="10" fill="#101928"/>
<path d="M102.267 26H100.585L95.4104 17.8105H95.3557C95.3693 18.0566 95.3853 18.3278 95.4035 18.624C95.4217 18.9157 95.4354 19.2233 95.4445 19.5469C95.4582 19.8659 95.4673 20.1895 95.4719 20.5176V26H94.1867V16.0059H95.8547L101.009 24.1543H101.057C101.048 23.9538 101.036 23.7054 101.023 23.4092C101.009 23.113 100.995 22.8008 100.982 22.4727C100.973 22.14 100.968 21.8255 100.968 21.5293V16.0059H102.267V26ZM110.734 26H105.121V16.0059H110.734V17.209H106.523V20.1826H110.481V21.3721H106.523V24.79H110.734V26ZM120.117 26H118.517L115.913 21.7549L113.274 26H111.784L115.106 20.8047L112.009 16.0059H113.561L115.974 19.8955L118.38 16.0059H119.878L116.774 20.8184L120.117 26ZM124.94 26H123.532V17.2158H120.497V16.0059H127.969V17.2158H124.94V26Z" fill="white"/>
</svg>
